<svg xmlns="http://www.w3.org/2000/svg" width="340" height="351" fill="none">
	<circle cx="170" cy="170" r="170" fill="#f1fe99" />
	<g fill="#50287d" clip-path="url(#a)">
		<path
			d="M205.781 308.165c-.189.226-.757.311-.87.818s.434 1.61-.052 2.382l.919.306c-1.264.452-.693 1.047-.992 1.747-.205.479-.749.98-.807 1.38-.113.791 1.494 2.193-.946 2.837l.033.578.583.223c.422 1.585-1.386 2.131-1.441 2.706-.031.302.712 1.322.452 2.061-.241.696-1.255 1.075-1.423 1.671-.235.84.543 1.096.378 1.841-.226 1.017-1.768 2.52-1.89 3.042-.024.104-.257 1.781-.278 2.013-.027.275.376.922.226 1.13-.47.65-1.97-.113-.611-1.219l-1.527.306c-.046 1.493 1.869 1.771 3.054 2.138.312 1.328-2.513.772-2.437 1.371l.935.635-.938 1.805 2.44.919c-.815.929-2.248.046-3.045-.455-.284 1.714-2.003.611-3.002 1.579l.018.816.532.351-2.746.305.306-.91h-.917l.306.91-7.19.211-.745-.818c-.232 1.979-3.439.372-4.382.601-.245.058-.199.623-.379.629-.364.013-.813-.448-1.439-.274-1.007.281-.812 1.322-.027 1.45.339.055.708-.504 1.2-.559.883-.1 2.352.3 3.051.26.468-.027.666-.522 1.414-.522 1.909 0 1.402 1.151 1.622 1.163.443-1.185 1.173-.959 2.294-.916l.149.614c.782-1.811 2.273-.058 2.444-.052.155.006 1.246-1.09 1.826-1.054.067.003 1.035.407 1.222.495.308.147.617-.253.467.605-1.158-.125-1.481-.128-1.985.916l-.44-.018c-.287-1.362-3.503-.077-4.764.03-.645.055-1.24-.348-1.805-.311-.565.036-1.06.62-1.543.598-.437-.021-.739-.537-1.203-.574-1.026-.079-2.767 1.31-3.082-.046l-.284.007c-1.341.974-3.326.311-4.914.354-.98.027-1.649.739-3.286.256-.281-.082-.174-.607-.363-.61-.587-.003-.776.693-1.286.861-1.359.452-1.201-.397-1.543-.526-.342-.128-2.577-.708-1.597.278-.739-.473-1.252.306-1.68.303-.427-.003-.684-.474-.968-.522-.675-.113-1.224.794-1.475-.394l-.617.925c-.791-1.081-3.048.544-3.491-.785-.537-1.622 1.631-.498 2.276-.498.702 0 1.392-.491 1.85-.528.159-.012.129.47.339.586 1.674.923 1.237-.409 1.815-.592.528-.168 1.059.275 1.508.256.449-.018.843-.592 1.518-.617.565-.018.388.602.635.633 1.237.146 2.141-.312 4.014-.058.736.1 1.45-.727 1.606.684l1.041-1.121 2.923.354-.608-.452.914-.611c-.794-.284-1.827.019-2.511-.076-.348-.049-.663-.614-1.283-.553-.479.049-.76.611-1.502.614-1.213.003-2.624-.935-2.776-.932-.941.025-2.337.312-3.345.352l-.345-.636-.449.013c-.293 1.304-1.997.934-2.138-.474-.033-.152 1.173-.415 1.399-.421 1.543-.052 3.28.348 4.661.394 2.361.076 4.697-.26 7.064.183l-.822-1.545-6.199.015c.317-2.333.729-1.475 1.985-1.674.681-.107 1.16-.69 2.287-.155l-.296-1.072c-.873-.306-1.732-.239-2.627-.187-1.029.061-.137-1.313.333-1.487.837-.309.11 1.023.755.91-.324-2.022 3.115-.534 1.628-2.465l-1.625.327.284-1.396 1.545.178c.901-1.112-.91-2.49-.928-2.642-.077-.645.519-1.094.562-1.533.036-.388-.52-1.222-.565-2.071-.217-4.157.073-8.582.003-12.546-.052-2.825.528-5.727-.464-8.402-2.346.012-4.67-.156-7.001-.132-2.608.031-6.099.761-8.777.376-.299-.043-.608-.534-.999-.541-.418-.006-.757.62-1.484.608s-1.628-.604-2.486-.604c-5.088 0-10.619.742-15.851-.031-.461-.067-.809-.525-1.197-.516-2.798.067-1.707.614-4.975-.333-2.715-.785-2.419 1.301-3.516 3.13-.549.92-.479.327-1.032 1.717-2.907 7.321-5.088 13.447-6.954 21.143-.165.681-1.252 1.088.388 1.463v.596c-1.008.223-2.245 2.413-.611 2.458l-.608 1.518c.104.098 1.75-.659 1.524.455-.085.419-2.083.269-2.135 1.375 1.106.11 2.554-.596 3.562-.596 1.007 0 1.288 1.118 2.394-.311 2.068 2.913-1.787 1.829-3.283 1.902-.413.019-.813.352-1.304.394-.278.025-1.53-.665-2.288.294l1.68 1.075.614-.917.91.611.47-.919h.446c1.048 1.594 2.034.464 3.399.336 1.054-.101 2.12-.003 3.174-.031-.291.785-.104 1.146.305 1.824-2.205 1.469-3.072.494-.916-1.213-1.323.07-3.519-.711-3.357 1.219l1.524-.303c-.094.837-1.976.999-2.583.901-.822-.134-1.332-1.383-1.699.318l-.754-.916c-.366.739-1.713.953-2.458.873-1.845-.195-3.262.061-5.138-.064-.647-.043-1.63-.605-2.134-.528-.135.021-1.546 2.425-1.149-.416l-.415-.43-2.01.146-1.108 1.347-2.236-.012v.913c1.402-.623 2.611-.476 3.662.611.244-.837.544-1.374-.296-1.985.461-.767 1.087.015 1.826-.15l-.913 2.44c1.087-1.105 1.674.275 2.306-1.191 1.267.767 2.128.101 3.078.083 3.5-.071 7.028.345 10.393.388 1.689.021 2.871-.263 4.667.433l.015 1.201c-.238.256-2.015-.529-1.835-1.219-.751 1.408-2.587.553-2.709.641-.122.089-.095.718-.51.834-.251.067-1.197-.29-1.677-.085l-.29-1.393c-1.041-.321-.489 1.377-1.118 1.542-1.67.434-1.509-1.105-2.092-1.234l-1.06.914-.769-.907c-1.03.778.366.696.461 1.065.403 1.57-1.9-.714-2.028-.739-.357-.061-.861.733-1.771.599-.651-.095-.895-.788-1.274-.861-.62-.126-2.379.953-2.26-.373h-.296c.027 1.072-1.408 1.118-2.242.907-.235-.058-.18-.565-.394-.592-.971-.126-2.822.274-3.998.189-.6534-.049-1.3008-.51-1.7834-.498-.62.015-.8582.779-1.2491.861-.5101.104-1.2461-.723-1.8294-.785-.7972-.082-1.9394.724-2.8587.523l.7819-1.79c1.2063.223 3.0785.635 4.2696.583 1.0079-.042 1.9333-1.258 3.3201-.308l.632-.935c.324-.989-1.213-.308-1.542-.326-.4402-.025-.7028-.517-1.1487-.517-.6048-.003-1.4141.74-1.9455.785-.3237.028-.6383-.345-1.0292-.384-1.9608-.202-3.9368-.459-5.7845-.462.1863-1.099-.5864-1.179-.5956-2.306-.6291-.458-2.1715.223-2.6143.11-.0825-.021-.9834-.314-1.3774-.439-.3298-.104-1.8172-.935-1.8203-1.185-.0091-.446 1.2889-.822 1.3713.165l3.5123-.932-.4917-1.545-2.8679.323c.1833-1.276 1.0323-1.933 1.6768-.607.736-.929 3.1915-1.436 4.2879-1.396.3512.012.6994.434 1.1575.409.7208-.04 2.4555-1.115 3.5672-.849-1.2186-1.435-.2871-3.008-.3298-4.398-.0275-.855-.6017-1.728-.5925-2.761.0092-.873.6169-2.211.5284-3.029-.5589-5.122-1.2431-10.134-1.298-15.323-.0031-.348.4428-.708.4062-1.157-.0459-.553-.7819-1.127-.8124-1.873-.0306-.827.8062-2.021.8001-2.159-.0091-.25-.7696-.568-.8521-1.228-.058-.445.0123-2.293-.003-3.048-.1252-5.393.8918-13.123-.4673-17.768-.4123-1.405.4337-1.32.4795-1.521.2718-1.179.1832-4.209.2107-5.479.0611-2.59-.2199-5.119-.1802-7.59.223-13.643 2.9014-27.52 5.4974-41.227.8831-2.917 1.9301-5.989 2.2421-8.882.223-2.083.571-3.68-.739-5.402-1.3106-1.723-1.8543-1.906-2.9904-4.12-.5528-1.075-2.538-5.91-2.4341-6.921.1038-1.011 1.1697-.718-.6719-1.887l-.0123-.587c.6139-.519 1.127-.372.9102-1.38h-.9163l.6109-1.827-.9132-.763c.5589-.629 1.3896-1.017 1.2186-1.991l-1.0781.015-.449-2.764 1.524-.312c.284-.748-.8826-.8-.8857-1.047-.0061-.529.7086-1.466.8033-1.936.4367-2.175-.168-2.126.9162-4.881.5558-1.414-.0397-2.397.1099-2.938.0947-.342.7055-.376.8888-.724.2382-.458.1771-1.212.4245-1.802.2749-.653 1.3927-.534 1.7164-1.179l-.4581-.754-.7605.605c-.3268-1.494 1.5548-1.686 2.0458-2.227.272-.299.883-2.159.987-2.217.324-.177.818.229 1.084-.116.458-.59.293-1.839.751-2.633.376-.65 3.717-2.825 4.566-3.68.614-.62.828-1.686 1.027-1.875.748-.709 5.317-2.975 6.612-3.619.33-.165.528-.495.791-.736.345-.165-.205 1.163.604.91 1.146-.358 1.305-1.747 1.402-1.817.211-.156 1.051.357 1.591.018.327-.205.376-.764.648-.959.428-.309.977-.217 1.386-.47.263-.162.285-.669.715-.84 1.005-.4 1.842 1.496 2.046 1.325.278-1.041-.1-2.196 1.213-2.62 1.063-.342 1.588.247 2.306.192.782-.061.724-1.005 1.206-1.118.489-.113 1.918-.088 2.676-.201 1.065-.156 1.685-.855 2.983-.226l-.571-.761c1.02-.586.681-1.603 1.029-2.293.227-.443.889-.48 1.002-.675.681-1.17.104-4.362 2.514-3.906-.944-2.126.339-1.747.937-2.569.397-.544.174-1.28.562-1.881.269-.416.92-.538 1.143-.843 2.26-3.051 4.211-7.981 6.554-10.699 1.026-1.191.916-.498 1.979-2.296 1.554-2.639 3.982-6.451 5.922-8.747.247-.294.778-.376.87-.514.122-.174-.263-.772.015-1.243.174-.293 1.027-.65 1.421-1.117 1.31-1.549 1.979-3.537 3.078-5.486.116-.207.565-.271.638-.409.352-.663-.009-1.89 1.298-2.519-.446-.538-1.148-.953-1.453-1.595-.901-1.887-.416-8.7894.583-10.5761.88-1.5759 1.698-.7329 1.777-.8124.052-.0549.007-.6169.187-.8765.937-1.353 5.216-2.1684 6.832-1.695 2.486.7269 2.171 3.3015 3.066 5.1859l-.553 6.3739c.73 1.2402 1.692.4672 2.56.4762 1.786.025 3.585.125 5.237.196 1.329.058 2.673-.003 3.901-.5134l.314.6414 2.288-.6261.149 1.2221c1.063-1.0755 2.456-1.3901 3.937-1.213.593.0703 1.097.611 1.564.593.467-.019.843-.6357 1.527-.6388.586 0 .937.4918 1.228.5188.467.046 1.13-.5615 1.817-.4852.424.0458.776.5432.934.5472.22.006.541-.6816.981-.8068 1.499-.4275 2.193.3329 3.026.4798 1.491.262 3.76-.4462 5.183-.492.654-.0214 1.277.3787 1.949.2779-.367-1.6736.812-2.5837 1.343-3.6985.358-.7544.507-1.6034.984-2.3761.281-.4581 2.865-3.894 3.082-4.0253.659.0733 1.997-.5528 2.388-.5742.287-.0153 3.619.7086 3.973.8613.764.3298 1.882 1.4507 1.937 2.3211.103 1.6798.226.8124.342 1.2827.51 2.0585-.565 5.9036-1.295 7.8121-.489 1.28-.849 2.477-1.787 3.436-.067.715 1.952 3.225.327 3.662l.027.596 1.191.971c.181.605-.58.959-.586 1.49-.009.675 1.081 1.869 1.136 2.172.067.363-.287.864-.171 1.402.217 1.029 1.222 3.084.715 3.909-.382.62-1.637.25-1.387 1.215 1.433-.372 1.781 1.204 2.12 2.312.168.547 1.114 3.955 1.151 4.294.076.663-.489 1.839-.397 2.422.028.171 1.326 1.937 1.374 3.021.043.913-.907 1.133.578 1.826-1.167 1.863.183 2.697.568 4.047.281.977-.15 2.611-.119 3.002.033.464 1.701 1.167.213 2.74 1.427.833 1.543 1.673.019 2.449 1.27.492.577.861.711 1.158.489 1.093 1.451 3.933 1.567 5.057.076.718-.452 1.414-.363 1.979.146.935 1.31 1.579.195 3.094l.565.214-.192.815.556.061v.596l-.611.211.47 1.627.156-.913c.437-.085.379.449.446.749.302 1.319-.101 2.287-.028 3.322.11 1.579.819 2.948.984 4.389.165 1.442-.419 3.179.888 4.67l.758-.913c.626 2.751 1.582 5.784 2.006 8.554.077.501.205 2.725-.757 2.101-.104-.067.202-.87-.632-.577l.305 3.051c.944.095.962-.827.916-1.527h.914c.064.449-.278.913-.214 1.326.317 1.973 1.881 5.085 1.961 7.116.039.999-1.036 2.574-1.054 3.256-.003.137.195 2.489.275 2.595.174.233.992.205.879.816-.614 1.527-1.203 3.363-1.469 4.972-.076.464.284.968.187 1.393-.126.553-1.121.968-1.329 1.444-.165.379.147.822-.07 1.414-.345.938-1.573 2.08-1.781 2.544-.143.321.422.565.419 1.011 0 .162-1.023 2.874-1.143 3.051-.846 1.231-2.699 2.694-3.591 3.665-.596.651-2.801 3.009-2.996 3.571-.397 1.142-.238 3.5-.513 4.675-.898 3.833-1.518 8.173-2.358 12.287-2.587 12.626-4.81 25.084-8.869 37.569-.617 1.902-.373 3.793-2.456 4.572l1.219.455v.608l-.556.036.257.88h-.92c.263.727.153.947-.302 1.521l.919.47c-1.002.641-1.127 4.441-1.31 4.67-1.329 1.677-.415 1.081-.693 2.953-.245 1.637-2.211 2.486-.749 3.06-.274.437-1.23.999-1.383 1.384-.177.446.192.861.101 1.298-.092.437-.712.818-.84 1.612-.122.752.149 1.757-.009 2.367-.132.489-1.472.602-1.833 1.063-.678.871-1.246 3.231-1.228 4.346 1.179-1.411 1.005-2.348 1.677-3.97l.025 2.767-1.702 3.646c.419-.946.01-1.719 0-2.443zm-21.876-188.021c.369-.393 2.049-1.768.614-2.226-.978-.311-3.238 2.294-4.618 2.651-1.463.379-3.964-.244-5.244-1.02-.971-.59-1.93-2.84-3.079-1.497.8 1.286 1.179 2.755 2.59 3.513 2.465 1.325 6.924 1.011 9.178-.62.238-.171.342-.568.562-.804zm28.226.129c.519-.281 1.741-2.584.207-2.706-.381-.031-4.959 2.632-7.1 2.697-1.048.03-3.494-1.747-3.754-.654-.342 1.442 3.079 2.517 4.154 2.575 1.881.103 3.344-1.216 4.966-1.76.507-.171 1.169.04 1.524-.152zm-15.283 5.949c-1.035-1.142-4.019-.898-5.213-1.567-1.286.972-3.601 1.298-4.685 2.505-3.195 3.561-6.191 7.043-8.167 11.227-1.295 2.742-2.379 6.264-2.486 8.964-.119 3.072-.36 6.108.256 9.089.171.824.904 3.872 1.21 4.44.15.281 1.826 1.591 2.217 1.915 3.143 2.581 7.684 4.826 11.905 4.881 3.332.042 5.598-1.692 7.904-3.561.874-.709.559-.611 1.1-1.17.296-.309.937-.281 1.151-.535.189-.223.165-.867.418-1.252 1.607-2.428 2.444-4.618 3.293-7.403.705-2.315-.101-10.283-1.091-12.574-.201-.464-.87-.528-1.102-1.053-.492-1.112-.147-2.038-1.035-3.565-1.928-3.301-2.749-6.163-5.305-9.354-.233-.29-.217-.813-.373-.984zm27.261 45.729c.528.086.705-.1.809-.601.202-.968.095-5.314.064-6.573-.033-1.386.013-4.709-.253-5.796-.119-.489-.006-1.079-.773-1.072l.15 14.045zm3.35 9.774c1.326-3.03.684-6.64.73-9.881.052-3.576.223-7.726.15-11.019-.021-.907-.186-1.997-.266-2.916-1.417 1.298-.467 3.982-.415 5.699.098 3.338.192 7.1 0 10.377-.116 2.019-.974 5.562-.77 7.309.055.461.052.867.568.431zm2.144-23.514-.87.51c.366 4.135.608 8.164.87 12.32h.914l-.917-12.827zm-3.057 6.41c-.043-1.459.012-2.974-.101-4.422-.033-.434.211-.727-.357-1.069-.623.382-.336.703-.363 1.176-.052.852.036 2.239.091 3.137.031.513-.097 1.401.73 1.175zm-3.359 1.833c-.342-1.249-.034-2.511-.089-3.699-.024-.482.26-.797-.366-1.182-.501 0-.507 3.659-.422 4.136.098.543.269.83.877.742zm3.359-1.219c-.715-.045-.54-.1-.611.452-.11.856.071 1.854 0 2.752-.155 1.915-.641 4.09-.772 5.953-.123 1.728.748 1.353 1.062.14.746-2.874.037-6.352.321-9.297m-8.548.306h-1.219l.306 2.745c1.007-.488.702-1.856.913-2.745m.919 3.662c.244.183.797-.153.861-.516l-.406-2.535c-.418.391-.803 2.791-.455 3.051m.916 13.132c.865-.58 1.127-2.519 1.213-3.518.232-2.66.067-5.717.201-8.429.031-.636.849-3.564-.042-3.626l-1.372 15.57zm3.354-15.573c-.776-.183-.666.361-.752.911-.412 2.706-.302 5.515-.47 8.252h.913c-.507-1.445.217-2.66.269-3.855.07-1.685-.348-3.558.037-5.308zm-8.555 17.1c.052-.363.235-.681.247-1.059.086-2.41.666-4.85.856-7.394.201-2.728.009-5.592.119-8.344-1.46.614-.394 1.133-.419 1.673-.226 4.634-1.557 9.713-1.42 14.349.018.62-.208.901.617.772zm.003-15.878c-1.273-.064-.602.907-.724 1.31-1.2 3.907-.583 8.011-1.429 11.649l-.131 5.97c.629.22.485-.522.549-.888.452-2.523.269-5.528.517-8.115.314-3.32.809-6.621 1.218-9.926m3.363.611h-1.219c.193 2.034.174 4.056.156 6.093 0 .25-.309 1.252.299 1.231 1.204-.04.128-3.623.211-4.126.03-.19.51-.113.562-.349.15-.672-.339-2.009-.009-2.849m-7.944 18.627c-.104-.095.739-2.135.84-2.675.614-3.278.986-9.022.91-12.434-.015-.733.076-2.055-.373-2.605-.696.956-.235 2.223-.296 3.219-.376 6.044-.996 13.356-2.26 19.012-.22.983-.657 1.924-.635 2.962.015.639-.248.883.592.764l1.585-7.803.55-.141c.101-.598-.763-.165-.916-.302zm20.136-9.486c.299-.186 1.441-6.826-.584-6.392.373 2.196.025 4.233-.305 6.41zm-6.701 4.599c.186-2.916 1.026-5.882 1.154-8.802.025-.546.187-.882-.387-1.273-.391 1.338-.33 2.846-.547 4.193-.144.898-.693 2.453-.761 3.36-.052.699.092 1.157-.033 2.092-.08.607.036.44.574.43m-19.061 8.146c1.231-4.218 1.726-10.131 2.111-14.568.082-.966 1.032-2.175 0-3.042-.663 1.27-.254 2.8-.474 4.104-.308 1.845-1.001 3.992-1.457 5.577-.091.324.065 2.587-.103 3.552-.333 1.906-1.619 4.209-.718 6.004.815-.433.131-1.233.229-1.472.021-.048.379-.064.406-.155zm-3.533-17.305c-1.811-.165-.941 1.066-1.081 1.875-.709 4.093-2.636 8.457-3.656 12.47-.639 2.508-.968 5.605-1.582 8.249-.208.886-1.106 1.512-.391 2.752.803.095.479-.015.611-.449 1.686-5.58 1.838-11.596 4.391-16.932l1.711-7.965zm-14.046 31.76c.531-.08.519-.62.693-.984 1.274-2.629 1.536-5.827 2.312-8.682 1.854-6.842 3.622-13.866 5.69-20.582.522-1.698-1.185-.238-1.521.779-.192.586-.098 2.018-.305 2.767-2.319 8.398-4.603 16.755-6.72 25.178-.131.519-.219.992-.149 1.527zm16.181-30.844c-1.454.009-.672 1.533-.767 2.419-.083.761-.932 1.756.009 2.465.565.275.687-1.091.724-1.408.128-1.152-.012-2.324.034-3.476m31.151 0c-.723-.702-.83 2.297-1.215 2.441.595.601.678-1.326 1.075-.303.202.522.034 2.944.147 3.057h.913l-.92-5.192zm-25.654 1.527c-.745-.189-.69.382-.773.917-.14.904.061 2.086-.14 3.051.91.137.519-.202.598-.767.15-1.041.217-2.153.312-3.201zm9.779 8.549.904-1.075.006-7.477c-.592.107-.403.452-.452.813-.195 1.441-.174 3.042-.476 4.492l.638.348zm6.414.611c1.728-.871.974-4.126 1.035-5.901.022-.626.806-2.791.028-2.953-1.237-.26-.562 2.168-.593 2.608-.033.47-.54.858-.476 1.5.036.387.501.72.507.931.006.226-.602.831-.672 1.344-.064.464.614 1.661.174 2.474zm-10.079 7.635c1.726-.269.819-2.169.938-3.155.479-3.94 1.515-7.825 1.924-11.865.052-.498.363-.761-.272-1.164-.647-.186-.574 1.118-.611 1.518-.281 2.911-.43 5.803-1.09 8.68l-.562 1.276zm7.935-16.184c-.638-.006-.605-.177-.556.431.058.742-.822 4.578-.663 4.758l.877-.745zm-41.536.306c-1.338.32-1.301 3.151-1.829 4.272.69.205.943-1.02 1.117-1.475.318-.834.608-1.906.712-2.797m9.773 3.359c-1.093-.308-1.808 2.474-1.524 2.746h.913zm17.103 11.297 1.753-10.014-.375-1.28c-.831 0-.7 4.74-.837 5.265-.315 1.219-.364 1.13-.575 2.477-.155.99-.952 2.954.034 3.549zm-21.07-10.686h-.913c.25 2.187-1.164 3.744-1.222 5.803 1.081-.339.767-1.423 1.066-2.138.534-1.277 1.221-2.132 1.069-3.665m7.333 5.8c.672.11.733-.275.898-.779.439-1.316.94-3.063.928-4.413-1.322 1.35-1.316 3.494-1.826 5.189zm34.713-1.622c.272-.522 1.136-2.801.107-2.956-.422 1.551-.993 2.773-1.83 4.132-.867 1.408-1.954 3.164-2.944 4.688-3.097 4.773-6.704 7.937-11.45 11.15-8.484 5.739-19.797 9.514-30.052 10.265-2.508.184-10.549-.14-12.492-1.499-.253-.177-.1-1.094-.946-1.246-.455 1.49.336 1.908 1.631 2.342 7.943 2.663 18.327.55 26.189-1.707 9.128-2.624 16.632-7.608 23.962-13.603 2.178-1.781 4.389-6.447 5.907-9.059.449-.775 1.683-2.04 1.921-2.501zm-7.232-2.651c-.804-.137-.553.137-.697.684-.198.754-.012 1.79-.238 2.44-.089.254-.473.22-.641.669-.327.868.122 2.016-.251 2.923.865.177.489-.254.706-.654.201-.369.659-1.13.696-1.463.052-.494-.599-.751-.479-.928.018-.027.513.089.601-.214.242-.843.202-2.513.309-3.457zm-23.517 12.519 2.749-12.217c-.526.086-.532.608-.694.984-.351.827-1.09 2.562-1.261 3.347-.128.586.144 1.106.031 1.552-.437 1.75-1.008 3.524-1.43 5.298zm25.349-11.908c-.809-.904-1.292 3.607-.91 3.967.66.122.626-.07.77-.614.122-.461.336-3.136.143-3.353zm-20.765 3.35c.095-.113-.415-.611-.482-.91-.141-.617.278-1.9-.431-2.135l-.611 4.578c1.197.156.611-1.02.77-1.24.183-.256.705-.232.754-.293m-103.5342-2.739-1.8294.305.6017.305-.904 2.132c1.6553-.601 1.7011-1.118 2.1348-2.745zm82.7692 0c-.653 1.893-.629 4.046-1.09 5.943-.559 2.3-2 5.638-2.263 7.971-.067.59-.08.977.452 1.347l3.772-14.562-.871-.702zm32.676.916-.919.201c-.388 2.935-.501 5.919-.91 8.958.818-.516 1.06-2.55 1.191-3.54.049-.375-.193-.846-.138-1.356.162-1.426.526-2.855.773-4.263zm-29.625 2.749c-1.634.119-1.2 1.963-1.218 3.048.928.168.467-.278.635-.721.302-.788.479-1.506.583-2.33zm7.333 5.494c.684.116.846-.452 1.017-.965.403-1.213.623-3.216.81-4.532-1.268.452-.724 1.637-.984 2.525-.281.968-1.023 1.848-.843 2.972m11.606 5.497c.87.99 1.072-3.075 1.13-3.292.675-2.559 2.028-4.987 1.918-7.702l-.761 1.221zm-15.885-10.686c-.675-.104-.739.257-.894.782-.211.702-.504 1.707-.678 2.397-.095.379-.361.883.204 1.094.605.226.501-.553.596-.92.284-1.105.464-2.254.772-3.353m23.826 0c-.324 2.171-1.008 4.297-1.323 6.472-.299 2.083 1.112.678 1.301-.535.156-.995-.308-2.205-.214-2.697.101-.528 1.836-2.18.236-3.24m17.405 3.97c-.269-.244-.721-.064-.996.382-.293.473-1.704 2.978-1.444 3.28l.937-.757c-.097-.663 1.72-2.706 1.503-2.905m-28.406.917c-.724-.12-.639.238-.813.693s-1.197 4.367-1.224 4.691c-.037.421.25.886.21 1.332 1.454-.578.791-1.54.935-2.267.281-1.426.806-2.944.892-4.449m16.907 3.768c.916-.788 2.315-1.716 3.109-2.541.223-.232.773-.647.297-.925-1.696.812-2.926 2.944-4.698 3.103-7.531 8.002-20.6 12.299-31.423 14.226-1.482.263-3.891-.025-4.96.993 2.315-.26 4.911-.251 7.195-.593 10.891-1.637 22.216-7.147 30.477-14.263zm-15.338-2.205c-.064.092-.116 1.494-.128 1.86-.018.464-.482.693.245 1.149l1.673-3.51-.598-.455c.183.871-1.03.724-1.188.953zm4.844.269-.84.687c.471.562-1.108 2.865-.223 2.975 1.268.159.932-2.947 1.063-3.662m16.798.611c-1.341-.183-1.674 1.258-2.425 1.997-2.877 2.834-6.282 5.528-9.685 7.724-.22.144-3.582 1.454-2.852 2.184l6.392-3.836c2.81-2.181 4.923-3.757 7.162-6.432.431-.516 1.454-.883 1.408-1.64zm-103.84 5.189c.141-.593-1.066-3.61-1.829-3.051.027.458 1.212 3.741 1.829 3.051m65.663-2.135c-1.267-.024-.897 1.664-1.102 2.48-.397 1.564-.968 3.149-1.332 4.709-.052.229-.525 1.1.147 1.051.705-.052 2.281-7.018 2.287-8.24m10.995.916c-.913-.159-.482.245-.641.715-.284.837-.428 1.854-.73 2.645-.229.592-.818.876-.764 1.524 1.683-.535 1.65-3.332 2.135-4.884m-15.576 1.83c-.852.531-1.343 2.626-1.453 3.588-.071.599-.208.886.387 1.292.477-.009 1.094-4.184 1.066-4.88m43.986 1.221-.462-1.215c-.287.336-3.274 2.675-2.898 3.048 1.426-.242 1.701-2.187 3.36-1.833m-49.782 4.276c1.096.067.861-1.246 1.258-1.945.217-.382 2.376-2.041 1.026-2.328-1.011-.213-2.297 3.461-2.284 4.273m42.143-1.524c-1.936.098-3.026 1.958-4.614 2.865-4.698 2.687-12.278 5.274-17.62 6.511-.333.076-1.267-.07-.974.541.257.531.797.491 1.295.406 4.282-.733 17.002-5.891 20.466-8.491.174-.131 1.686-1.63 1.447-1.835zm-29.622 13.127c.788.116 1.408.329 2.239.284 2.23-.126 9.859-2.285 12.171-3.128 2.843-1.035 12.949-5.876 14.879-7.721.33-.314.776-.439.639-1.038-1.506.999-2.972 2.049-4.572 2.907-8.085 4.334-14.688 6.649-23.66 8.073-.407.064-1.628.137-1.692.623zm35.422-10.986c-.849-.467-1.952.589-2.663 1.148-.367.29-.831.348-.693.984l1.233-.443zm-59.857 2.743c.476.51 2.086-2.306 1.062-2.746-.962-.193-.791 2.208-1.062 2.746m46.114-2.441c-1.253-.113-2.114.849-3.143 1.283-6.991 2.938-20.508 6.05-28.046 5.864-2.596-.064-5.525-.916-8.06-.867-.537.009-1.64-.074-1.371.742 2.935-.052 5.797.778 8.695.928 2.339.119 5.204-.137 7.25-.415 4.035-.547 8.607-1.686 12.522-2.734 3.98-1.062 7.706-2.003 11.374-3.906.43-.223.916-.165.782-.895zm-29.928 3.659c-.815-.983-2.855-.513-3.979-.733-1.686-.33-3.048-1.353-4.878-1.093.535.992 2.41 1.42 3.497 1.673 1.683.394 3.693.703 5.36.15zm-54.671 6.111-2.926-4.248-1.039-.638c-.158.611.202.831.443 1.234.33.559 2.996 4.181 3.522 3.652m69.023-2.44c-4.337.446-8.619 1.61-12.999 1.839-2.898.152-6.923-.232-9.88-.471-.797-.064-2.486-1.105-3.081.153l8.973 1.243.36-.638c4.801.714 10.946-.284 15.787-1.298.537-.113 1.008-.107.837-.828zm-20.765 4.581c-1.897 0-3.714-.293-5.498-.916v1.219c1.558-.419 3.421.467 5.033.317.584-.052.501.04.465-.623zm11.911-.611c-1.674.33-3.369-.051-5.033-.03-.572.009-1.075.281-1.567.296-.892.031-2.627-.736-3.173.339 2.647.147 6.08.312 8.716.015.458-.051.941-.064 1.057-.62m-55.894 3.052c.407-.483-2.33-4.001-2.308-1.216zm-3.677-1.21c-.531-.006-3.344.373-2.733 1.206.858-.134 1.496 1.558 1.915 1.738.449.193.977.049 1.423.266.51.247 1.588 1.35 1.698 1.356 1.671.067-1.832-3.274-2-3.503-.229-.315-.284-.687-.306-1.063zm56.822-.009c-2.648.122-5.571.556-8.167.064-.589-.113-.369.031-.384.541l6.529.268zm-60.169.913c-.849-.162-.547.248-.626.883-.251.226-2.013-.339-1.805.937.608.495 1.78 1.088 2.287 1.534.904.8 2.163 3.545 3.204 1.383-1.163-1.332-2.794-2.978-3.057-4.74zm-1.423 5.113c-.7-1.439-.785-3.341-3.152-2.972-.299 1.665 1.106 2.022 1.835 3.201l1.827.156c.134-.483-.419-.196-.51-.382zm44.483 5.882c-.07-.477 1.42-2.566.458-2.746-.745-.14-1.726 2.981-.458 2.746m58.642 3.362c-.638-.109-.883.422-1.072.911-.577 1.478-1.167 4.446-1.545 6.117-1.35 5.965-1.918 12.198-3.366 18.151-.333 1.368-1.24 3.066-1.487 4.175-.248 1.108.464 1.783 1.123.488.514-1.011 1.082-3.775 1.378-5.036 1.493-6.389 2.129-12.98 3.527-19.378.168-.764 1.634-5.208 1.442-5.428m-1.83.306-1.759 2.058c-2.382 9.447-3.292 19.76-6.01 29.079-.455 1.563-1.564 3.158-1.387 4.898 1.387-1.655 2.324-4.853 2.914-7.009 2.187-7.989 2.419-16.342 4.572-24.136.437-1.576 1.234-3.293 1.674-4.89zm-62.612 7.941 1.527-6.719c-.525.085-.537.601-.693.983-.354.873-1.475 3.659-1.597 4.358-.049.281.201 2.062.763 1.378m57.726-6.414c-.779-.116-.916.65-1.084 1.203-.465 1.558-.468 3.396-.88 4.988-.858 3.326-2.727 7.598-3.106 10.903-.165 1.444.794 1.835 1.005.369l4.062-17.463zm-1.527.916c-1.075-1.035-2.016 4.398-2.117 4.725-.271.895-1.203 1.747-.937 2.904h.913l2.138-7.632zm-44.899.916h-.913c.125.868-.339 1.573-.559 2.349-.076.266-.632.88.104 1.008.962.171 1.414-2.718 1.368-3.357m38.18 0c-.669-.058-.648-.119-1.011.367-1.2 1.606-1.051 6.343-1.649 8.423-1.83 6.325-3.91 13.392-6.005 19.638-.675 2.013-1.603 3.992-2.018 6.081.439-.086.629-.504.821-.855 2.984-5.537 5.614-17.088 7.324-23.52.736-2.767 1.072-5.919 1.811-8.619.122-.452.895-.855.73-1.515zm3.665.917c-.895-.153-.495.21-.645.708-.672 2.199-1.438 4.93-1.957 7.15-.174.742-.743 1.741.009 2.211 1.334-3.298 2.107-6.551 2.596-10.069zm-26.88 3.662.306-3.055c-1.124.391-1.39 2.456-.306 3.055m-2.443-2.746c-.913-.159-.482.244-.641.715-.962 2.84-1.759 5.757-2.703 8.606-.476 1.435-1.545 2.675-1.231 4.419 1.023-1.121 1.158-3.145 1.689-4.569 1.136-3.038 2.727-5.76 2.886-9.174zm25.661 5.189c.873-.412.656-1.75 1.026-2.511l.037-2.373c-.669 1.521-.993 3.241-1.066 4.887zm-6.417-3.967c-.669-.113-.852.424-1.066.916-1.243 2.849-1.634 6.569-2.303 9.556-.045.211-.47.199-.565.464-1.395 3.977-2.574 7.428-3.603 11.352-.071.263-1.576 3.69-.556 3.662zm15.882 0-.911.21c.181.898-.974 2.144-.152 2.841l1.063-3.048zm-22.909.61-1.155.523-8.918 30.324c.483-.131.733-.62.968-1.014 3.595-5.956 4.438-16.874 7.181-23.413l1.924-6.417zm-4.884.306-1.09 2.122c-.07.715-.419 1.607.33 2.15l.678-2.394.079-1.875zm-21.687 4.883c-.211-.525 2.043-4.633.766-4.575-.745.034-.558 1.701-.632 1.964-.152.544-1.38 2.883-.137 2.611zm-4.575 1.222c.776.589 1.429-3.17 1.548-3.799.095-.513.504-.626-.18-1.085-.782 0-.638.587-.763 1.063-.178.681-1.069 3.467-.605 3.818zm39.7-4.884c-.751-.207-.87.733-1.053 1.228-1.118 3.039-1.805 6.313-2.829 9.395-.772 2.327-1.71 2.77-1.606 5.39.006.116-1.02.299-.617 1.087.727.123.58-.076.751-.604.898-2.795 1.778-5.562 2.688-8.323.907-2.748 2.007-5.369 2.666-8.173m1.527 0-.815.694-2.236 8.771c.593.116.929-.431 1.081-.901.605-1.863.917-4.282 1.381-6.2.061-.247.534-.207.589-.439.086-.367-.281-1.372 0-1.925m11.908 1.222c-1.203-.098-.876 2.092-1.078 2.905-.171.687-.928 1.398-.751 2.284l.919-.202zm-4.272.611h-.914c.095 2.688-1.841 5.128-1.832 7.938.846.146.516-.178.69-.669.373-1.051.422-2.331.645-3.088.171-.58 1.722-3.915 1.411-4.181m-3.974.305c-1.029-1.16-1.533 4.359-1.619 4.64-.241.809-1.007 1.45-1.099 1.707-.919 2.602-1.377 6.823-2.062 9.553-1.05 4.196-2.156 8.387-3.463 12.504 1.79-.996 1.701-3.421 2.217-5.263 1.689-6.025 3.054-12.314 4.753-18.462.412-1.493 1.34-2.944 1.273-4.679m-19.241 1.222h-.913l-.763 2.599v2.892l1.673-5.488zm-33.29 4.883c-.131-1.362 1.796-3.225.764-4.269l-1.222 3.201zm12.223-.61c.638.672 2.336-2.981 1.826-3.662zm27.172 5.192c.678-1.146.651-2.648 1.011-3.729.52-1.561 1.802-3.479 1.436-5.128-1.207.531-.834 2.199-1.121 3.054-.547 1.628-1.472 3.301-1.872 5.103-.144.645-.187.8.546.7m13.652-4.969c.251-.55.055-1.176.095-1.75-.415-.59-1.552 3.561-1.524 3.967 1.298.043.754-1.234.922-1.924.055-.232.468-.214.504-.293zM195.7 250.75c-1.152-.064-.706 1.112-.972 1.897-2.464 7.302-4.559 15.817-7.449 22.82-.103.248-.778.648.028.932.669.238 1.081-2.651 1.542-3.051 1.488-5.327 3.106-10.702 4.807-15.94.712-2.189 2.083-4.144 2.041-6.661zm20.768 0c-.657-.1-.752.257-.901.776-1.292 4.56-1.961 9.382-3.256 13.912-.315 1.099-1.072 2.403-1.432 3.616-.126.424-.688 1.328-.055 1.542l1.576-3.304c.238-2.041 1.212-4.023 1.655-5.684.95-3.558 1.554-7.278 2.413-10.861zm-56.196.306-.919.177c.296 1.936-1.03 3.311-.605 5.317.754.116.556-.058.721-.574.385-1.206.088-2.349.204-3.225.08-.59.77-.987.599-1.695m3.057 0h-.913c.592 1.564-.531 2.471-.611 3.967.803.916 1.552-3.61 1.524-3.967m22.903-.003-.681.388-3.592 10.607c.351-.101.693-.48.907-.767 1.161-1.536 1.876-5.647 2.529-7.55.342-.995 1.414-1.319.834-2.678zm15.359 5.286c-.516 1.357-1.139 3.21-1.558 4.701-.073.259-.638.87.101 1.008.559.103.938-.984 1.075-1.363.44-1.206.657-2.959 1.188-4.309.336-.855 1.714-1.548.483-2.565-.877.534-.55 1.582-.782 2.208-.095.25-.476.247-.504.32zm7.547-1.924c-.654-.116-.739.3-.92.776-.146.382-.607 2.422-.72 2.953-.37 1.754-.498 3.925-.8 5.736l.742-.611c.546-2.916.919-5.919 1.698-8.854m-53.447 4.884.571-3.176-.874-.486c.068 1.145-.027 2.37-.913 3.207.199.388.938.647 1.213.458zm52.537 6.108c.61-.128.519-.626.604-1.072.495-2.55 1.329-5.07 1.818-7.657.036-.186.565-1.099-.135-1.041-.782.067-.489 1.405-.595 1.833-.675 2.641-1.815 5.137-1.692 7.934zm4.575-9.77h-.914c-.397 4.282-2.003 8.417-3.185 12.543-.174.611-.342.739.284 1.191.467-.012 2.367-8.24 2.575-8.997.192-.696.714-1.271.882-1.918.144-.559.006-2.034.358-2.819m-33.589 5.189c.39-.089.671-.498.843-.834.171-.336 1.481-3.158.528-3.13zm16.791-3.662c-.715-.116-.702.293-.889.788-.522 1.39-1.047 2.917-1.246 4.401.675.11.73-.278.898-.779.464-1.377.846-2.996 1.237-4.41m-30.84 5.494c.687.785 1.701-2.986 1.771-3.271.07-.284.66-.732-.098-1.001-.678-.242-.525 1.667-1.069 1.979zm22.899-3.051c-1.377-.033-.983 1.607-1.243 2.209-.119.277-.482.226-.632.656-1.05 3.042-1.631 6.31-2.7 9.349 1.271-1.53 1.906-3.882 2.56-5.782.091-.265-.135-.681-.028-.995.269-.81 2.306-5.146 2.046-5.437zm10.693 2.138h-.913l-2.749 11.908c.605.092.806-.235.907-.769.272-1.466.596-2.908.809-4.383zm1.832.611c-.549-.043-.943-.11-1.154.519-.709 2.117-1.103 4.899-1.591 7.113.684.116.604-.055.76-.595.284-1.005.382-2.74.614-3.512.302-1.002 1.445-2.202 1.371-3.522zm-25.046.305c-.627-.699-1.598 3.036-1.524 3.357.742.195.754-.507.959-1.011.161-.397.729-2.159.565-2.346m18.633.306c-1.463.058-1.301 1.979-1.524 3.051h.913zm-18.02 8.854c.651.125.712-.306.932-.745.513-1.014 1.246-4.004 1.496-5.229.043-.205.553-1.093-.137-1.045-.736.052-1.894 6.051-2.291 7.016zm5.04-7.019c-.526.028-2.27 7.226-2.383 8.286-.027.266-.384 1.17.245 1.17.43 0 1.759-7.498 2.379-8.307.321-.278.122-1.167-.241-1.149m.766 5.797c.666.11.736-.275.901-.776.284-.858.752-2.446.962-3.319.058-.248.419-1.124-.183-1.088-.412.025-1.869 4.963-1.677 5.183zm34.2.306c-.217-.953 2.001-4.621.764-4.884-1.234.165-.379 1.093-.504 1.903-.101.632-1.222 2.254-1.173 2.516l.916.465zm-23.52 0 .614-4.579c-.748-.717-1.475 3.839-1.508 4.145-.08.742.409.388.894.434m-19.537 0c.956-1.213 1.613-2.45 1.216-3.971-.965.825-1.039 2.767-1.216 3.971m-24.588-3.048c-.22.015-1.115 1.96-1.304 2.357-.126.263-.63 1.042.082.99.305-.022 1.228-1.9 1.387-2.272.149-.352.47-1.118-.165-1.075m43.218 10.377c.401-.097.681-.482.831-.846 1.035-2.498 1.628-5.47 2.349-8.038.394-1.411-.602-1.545-.883-.122-.458 2.321-.934 4.74-1.637 7.064-.116.385-1.02.904-.66 1.942m-9.162-5.799-.461-1.521c-.342-.013-.541 2.339-.455 2.428.586.607 2.119-.098 1.826-1.213zm9.767-1.222c-1.582.202-.87 1.243-.968 1.918-.113.776-1.28 2.193-1.167 3.271.7.198.929-1.002 1.118-1.472.235-.583 1.289-3.363 1.017-3.714zm16.19 21.684.458-4.269c-.617.87-.925 2.742-1.054 3.835-.07.605.077.443.593.434zm-.305.611c-1.048-.098-.825 1.103-1.204 1.701l.593.278c-.675.492-.678 1.206-.608 1.988h.913zm-2.447 10.384c-1.56.073-.959 1.982-1.313 3.115-.296.947-.996 1.903-1.286 2.984-.488 1.817-.162 3.369-.449 5.198 1.097-.464 1.152-1.634.635-2.62 1.008-.242.297-.605.391-1.139.449-2.569 1.375-5.021 2.022-7.541zm-6.716 12.522h-.913l.278 3.842-.583.131.455.602c1.298-1.023.281-3.091.763-4.572zm-.614 8.548.306-3.665-1.54.801c.046 1.108.23 2.195 1.234 2.861zm-2.748-1.524c-1.439.162-1.21 2.324-1.216 3.357.623-.223 1.408-3.131 1.216-3.357m2.138 3.971c-1.463.107-.993 1.673-.303 2.44-1.334.345-.76-1.026-1.68-1.518-.442.006-.604 1.533-.479 1.945.088.288 1.347.178 1.27 1.082 1.821-.547 1.405-2.477 1.192-3.949m-84.969 11.367c-1.664.706-3.375-.968-4.508.391l.822.733c.495.202.886-.452 1.166-.477.391-.036.95.807 1.809.828.723.018 2.421-.223 2.611-1.084l-1.659.168-.238-.556zM180.126 345.733c-.006.917-.629 1.43-1.374 1.824l-.153-1.213-1.377 1.142-.91-.772c-1.396 1.389-2.328.513-3.638.577-2.874.137-6.444 1.206-8.89-.638l-.642.897-2.871-.29c.358-1.713 4.011-1.157 5.043-.302.354-1.35 1.899-.278 2.77-.327.815-.049.892-1.228 1.197.022.892-1.268 1.329-.15 1.897-.052.366.064 1.438-1.17 1.624.348l.449.009c.504-1.313.853-.617 1.689-.754.785-.129 4.924-.831 5.183-.468z"
		/>
		<path
			d="m130.648 335.96-.917.611.48.605c.602.137 1.005-.55 1.518-.608.69-.076 1.359.537 1.826.486.577-.065.605-1.158 1.368.733-1.618 1.108-3.325-.046-4.443.03-.498.034-1.619.235-2.395.315-.669.067-2 .571-2.174.571-.565 0-.752-.742-1.372-.608v.922l-1.832-.617 1.127-1.78c.757.214 1.692-.174 2.361-.052.513.095.882.611.94.608.349-.006.288-1.286 1.063-.91l.465.907.152-1.216h1.833zM126.372 333.517l-.144 1.533c-.357.654-.995-.327-1.231-.308l-.458 1.215c-1.053.229-1.096-.605-1.676-1.215-.788 1.924-2.38.693-3.668 1.823l.458-1.524-1.537.177-.604-1.548c.473-.44 1.148.372 1.686.339.339-.022.656-.416.962-.44.409-.031.665.51 1.038.427.458-.1 1.271-1.05 1.665-1.02.222.019 1.013 1.078 1.884 1.081.513 0 .959-.742 1.622-.543zM135.537 339.32l2.134-.309-.305 2.138c-.614-.547-3.24.434-3.357.305-.076-.085.062-1.423-1.371-1.533l-.183 1.194c-1.374.657-2.245-.476-3.641-.271l.3-1.399c.684-.464 1.979.354 2.299.351.199 0 .431-.321.66-.351.819-.107 1.39.253 2.089-.733.394 0 .59 2.123 1.222 2.126.757.006.091-1.469.153-1.518M150.201 335.346c-1.149.529-1.787-.156-2.349-.244-.354-.055-.651.437-1.112.455-.91.04-2.736.144-2.348-1.127l-.913.308v-.916c.916.611 1.64-.29 2.238-.244 1.054.079.4.504 2.245.311.119-.012 1.774.501 2.092.532l.144.925zM145.921 332.601c-.128.107-.779-.291-1.093-.278-1.61.055-4.139.189-5.754-.058-.553-.086-1.307-.147-1.091-.883.602-.177 1.085-.293 1.711-.064s.238.693.727.669l.439-.843c1.384.769 5.699-1.408 5.061 1.457M148.324 343.037l.193.561.449-.018.183-.623c1.722.935 3.182.079 4.926.128.712.019 1.32.63 2.23.202v.913c-.917-.586-1.744.22-1.989.232-.265.012-1.771-2.211-1.982.379-1.38-1.048-3.533-.431-5.186-.305l.767-1.524.415.048zM164.184 337.243c.049.043.311.971.305 1.078-.058 1.252-.934.299-1.322.247-.495-.064-1.747-.213-2.129-.189-.959.058-2.581 1.493-2.907-.434-.171-1.011 2.034-.363 2.446.15v-.922c.968.555 2.727-.712 3.607.064zM149.892 338.397l-1.832.614v-1.221l-.767.613c-.305-.042.086-.937-.763-.613l-.156.922c-.755-.156-1.714-.162-2.425-.327-.904-.214-.929-1.075-.452-1.487.278-.242 3.234.491 3.79.531 1.078.08 2.016-1.011 2.602.965zM156.611 338.095l.913-.302v1.221c-.226.266-1.948-.736-2.296-.775-.349-.04-1.946.708-2.648.705-1.216 0-1.72-.663-2.074-1.762.647.317 1.383-.098 1.927-.006.238.039.189.485.363.534 1.485.416 2.178.306 3.36-.812.51.369.721.598.458 1.197zM124.613 346.885c.4.415 1.411.042 1.148.983-1.67-.061-3.362-.223-5.03-.232-.51 0-1.735.605-1.988-.229-.623-2.031 3.042-.208 3.521-.156.092.009.281-1.099 1.491-.583l.18-.938c.547-.021.348.81.678 1.152zM130.039 347.254c.736-1.487 1.521-.446 1.985-.424.193.009.657-.461 1.402-.4.641.052 1.213.497 1.603.461.733-.07 1.338-1.112 2.34.217-.388 1.606-1.744.354-2.288.296-1.325-.147-3.481.821-5.042-.15M154.163 332.598c-.403.534-3.652-.275-4.425-.303-.922-.033-3.045 1.142-3.207-.608.571-.036 1.063-.241 1.653-.262.681-.025 1.756.418 2.165.433.36.013.678-.442 1.179-.412.467.028 1.246.678 2.125.275l.514.88zM114.696 346.72c.097.082.064.357.094.507l.584.024c.137-1.518 3.124-.886 2.752.614-1.158.046-2.322-.049-3.47-.113-.311-.018-.632-.357-.965-.376-.333-.018-1.249.645-1.976.184-.107-.51.134-.626.498-.874.437-.299 2.345-.082 2.48.031zM164.791 334.528c.089.052.031.534.22.528.437-.018.66-.501 1.207-.577.278-.04 2.794.174 2.895.281l.018 1.2c-.992.052-1.905-.281-2.895-.33-.702-.036-1.741.327-2.107.257-1.384-.269-.626-2.117.662-1.356zM133.091 333.211c-.119 2.899-4.193.608-6.105 1.83.068-2.605 2.312-.926 2.847-.968.363-.031 3.039-1.109 3.255-.862zM142.866 337.182c-.006 1.402-2.013.519-2.926 1.151l-.583-.846c-.58.953-1.429.095-2.291.611v-1.222c.587-.152.715.538 1.24.48.804-.086 1.246-.941 2.578-.816.742.071 1.231.678 1.985.642zM142.867 334.735l-2.242.33-.66-.937-.302.61-.757-.61-.471.919c-.491-.281-1.576-.461-1.368-1.225 1.115-.189 2.361-.012 3.427-.076s1.823-1.155 2.373.989M166.384 332.289c-1.402.953-1.311.205-2.047.061-.342-.067-.607.397-.849.416-.733.058-1.679-.706-2.599-.168-.067-2.141 1.204-.657 1.976-.736.242-.025.532-.443.935-.465.803-.039 2.352-.024 2.584.889zM129.734 342.982v1.221l.592-1.096 3.638.229.354 1.173-.77.314-.293-.617c-1.099 1.329-1.899-.165-2.449-.198-.62-.04-.458.62-2.184.32-.892-.152-1.475.608-1.322-1.34h2.44zM159.359 335.346h-3.662l.306.916h-1.524c-.428-.415 1.27-2.095 1.679-2.156.523-.076 1.689.388 2.563.483.577.061.711.168.641.757zM163.021 335.34c-.95.684-3.665 1.2-3.026-.727.311-.937 3.2-.696 3.026.727M145.311 339.32c-.183 1.423-1.631 2.669-3.051 1.826.223-1.817 1.454-2.022 3.051-1.826M143.171 343.29c.159 1.445-1.05 1.087-1.224 1.222-.043.033.516.766.018 1.078l-1.539.14.898-2.623 1.85.183zM137.326 343.33l.007 1.142-2.566.351c-.745-2.165 1.032-2.153 2.559-1.493M119.97 331.993l-.501.895c-1.023-.049-1.909-.339-1.035-1.369.427-.436 1.97-.238 2.599-.146 2.031.299.412 1.768-1.063.62M123.177 331.067c1.017.856 1.115.132 1.759.092.568-.037 2.19.076 2.05.977-.098.626-3.18-.045-3.769.11l-.504-.415zM139.874 340.609c-.272.152-.189 1.298-1.298.699l.031-1.973 3.032.748c-.415.721-1.313.272-1.765.526M167.911 331.379c.039.024-.452.837.299.913l.483-.876 1.658-.04-.027 1.194-3.021.632c-.226-.381-.238-2.351.608-1.826zM162.409 340.236c.187 1.322-.58 2.171-.922.611l-1.368.928-1.371-1.084c-.129-.672.302-.443.763-.464.993-.046 1.915.381 2.895.012zM129.124 347.868c-.523-.128-1.231.315-1.644.235-.113-.021-1.579-.953-1.408-1.298 1.146-1.154 2.966-.629 3.052 1.063M148.979 341.454c-.324-1.688 3.808-1.774 3.967-1.062.318 1.429-1.799.528-1.918.528-.464 0-1.875.702-2.049.534"
		/>
		<path
			d="M158.442 341.149c-1.756-.592-3.023-1.115-4.272.614l.266-1.194-.575-.33c.645-1.084 5.522.082 4.578.91zM139.407 346.769c.287.216-.037 1.056 1.212-.089 2.297 1.118-1.677 1.365-2.437 1.154-1.072-.299-.134-2.089 1.225-1.065M168.827 337.182c.244.217-.703 1.731-1.103 1.817l-1.64-1.359c.724-1.185 1.606-.354 2.743-.458M104.079 346.347c-.58 1.1-2.315.446-3.356.605.617-2.043 1.948-1.558 3.356-.605M136.151 333.517c.092.666-.171 1.2-.8 1.451l-1.949-.694c.37-1.417 1.732-.818 2.749-.757M135.308 350.537c-.092-.058-.071-.528-.254-.54l-1.35.314c-.055-1.478 1.946-.372 2.639-.317.592.046 2.071-.648 2.245.171.293 1.38-1.622.284-1.83.262-.449-.048-1.062.349-1.453.11zM198.448 343.592l-2.617-.58-.299.599-1.155-.321-.201-.919c1.325.458 2.44.339 3.778.021l.494 1.197zM128.211 339.622l-.018 2.126-1.509.317-.006-2.443zM133.705 331.678l-3.967.614c-.461-1.499 2.135-1.2 3.063-1.096.397.046.779-.147.904.482M87.286 341.152l-.1558-.919c-.9712-.244-.5803.73-1.2155.626-2.428-.394.0794-3.127 1.9791-.467zM155.609 331.422c1.329-.358 2.49 1.395.547 1.508-1.728.101-1.677-1.203-.547-1.508M160.27 331.391l-.498 1.53c-.834.104-1.444-.1-1.936-.782.855-.137.913-.394 1.399-1.038zM86.0613 343.589l-2.4402.309c.1527-1.937 1.8325-2.382 2.4402-.309M107.364 347.181c-.522.641-2.022-.235-2.364-.834l2.281-.614c.556.113.318 1.158.083 1.451zM137.367 331.074c-.116 1.401-2.123 1.102-3.054.91-.904-.822 2.77-1.124 3.054-.91M110.493 346.344v1.83c-.238.262-2.073-.969-2.134-1.072-.385-.645 1.863-.654 2.134-.758M166.082 349.704c.553.342 3.699-.846 3.656.152-.046 1.13-1.817.193-1.927.202-.382.027-.871.641-1.259.559zM209.142 340.239c-.428 1.133-.73.003-1.21.147-.882.262-1.777 1.169-3.063.763-.094-.547.519-.168.831-.379.223-.152.201-.681.519-.742.522-.098 2.288.08 2.923.214zM79.0352 339.931l-.6139 2.44-.9131-.309.6016-1.069-1.2094-.607c.5925-.966 1.185-.474 2.1318-.455zM146.528 343.287l-.027 1.191c-.975.452-1.488-.174-2.413-.278.052-1.573 1.524-.424 2.44-.913M140.118 342.985l-1.212 1.695-.895-.205-.031-1.493zM199.979 340.541c-.501 1.033-1.79.953-2.749.91l.208-.919c.913-.342 1.625-.177 2.541.006zM188.068 345.733c.865.895-1.802 2.04-2.443.455.421-.357 2.08-.83 2.443-.455M159.968 346.656v.91c-.605-.519-1.882.794-2.132-.156-.122-.47.061-.831.495-1.041l1.637.29zM204.81 146.049c.666.752.037 2.279-.07 2.972-.064.412.143.831.003 1.249-.04.125-1.552 1.894-1.686 1.998-.65.507-2.956 1.582-3.753 1.768-.959.22-1.445-.11-1.888-.034-1.179.199-1.249 4.804-1.478 5.818-.18.798-1.005 1.427-.846 2.358l3.201-.919c1.05-.012-2.181 2.232-2.493 2.391-4.04 2.047-8.447-1.078-8.646-5.439 1.769 1.802 2.853 4.844 5.898 4.541 1.457-.491 1.826-7.519 2.632-9.104-.934-.376-2.266-.547-3.093-1.029-2.676-1.564-3.097-5.977.058-7.086.54-.189 1.734-.433 2.305-.464 1.543-.085 6.374.162 7.843.4.269.043 1.943.504 2.013.584z"
		/>
	</g>
	<defs>
		<clipPath id="a">
			<path fill="#fff" d="M76.9043 88h162.192v262.861H76.9043z" />
		</clipPath>
	</defs>
</svg>
